<svg width="29" height="35" viewBox="0 0 29 35" fill="none" xmlns="http://www.w3.org/2000/svg">
<path d="M14.4808 33.4501C11.9608 33.4501 9.71082 32.8201 7.73082 31.5601C5.75082 30.2701 4.19082 28.41 3.05082 25.98C1.91082 23.5201 1.34082 20.6101 1.34082 17.25C1.34082 13.89 1.91082 10.9951 3.05082 8.56505C4.19082 6.10505 5.75082 4.24505 7.73082 2.98505C9.71082 1.69505 11.9608 1.05005 14.4808 1.05005C17.0008 1.05005 19.2508 1.69505 21.2308 2.98505C23.2408 4.24505 24.8158 6.10505 25.9558 8.56505C27.0958 10.9951 27.6658 13.89 27.6658 17.25C27.6658 20.6101 27.0958 23.5201 25.9558 25.98C24.8158 28.41 23.2408 30.2701 21.2308 31.5601C19.2508 32.8201 17.0008 33.4501 14.4808 33.4501ZM14.4808 28.365C16.7308 28.365 18.5008 27.4351 19.7908 25.5751C21.1108 23.715 21.7708 20.9401 21.7708 17.25C21.7708 13.5601 21.1108 10.785 19.7908 8.92505C18.5008 7.06505 16.7308 6.13505 14.4808 6.13505C12.2608 6.13505 10.4908 7.06505 9.17082 8.92505C7.88082 10.785 7.23582 13.5601 7.23582 17.25C7.23582 20.9401 7.88082 23.715 9.17082 25.5751C10.4908 27.4351 12.2608 28.365 14.4808 28.365Z" fill="white"/>
<path fill-rule="evenodd" clip-rule="evenodd" d="M7.18491 32.398L7.18494 32.3979C5.02866 30.9931 3.35354 28.9798 2.1455 26.4048L2.1435 26.4005C0.929654 23.7811 0.34082 20.7214 0.34082 17.25C0.34082 13.7801 0.929175 10.734 2.14451 8.14244C3.35127 5.53925 5.02694 3.52172 7.18943 2.14426C9.34168 0.743287 11.7824 0.0500488 14.4808 0.0500488C17.1781 0.0500488 19.6179 0.742688 21.7694 2.14245C23.9618 3.51894 25.6541 5.53652 26.8621 8.14239C28.0775 10.734 28.6658 13.7801 28.6658 17.25C28.6658 20.7214 28.077 23.7811 26.8631 26.4005L26.8612 26.4048C25.6513 28.9836 23.9586 30.9976 21.7709 32.4016L21.7677 32.4037C19.6153 33.7734 17.1764 34.4501 14.4808 34.4501C11.7853 34.4501 9.34631 33.7734 7.19395 32.4037L7.18491 32.398ZM25.9558 8.56505C24.8158 6.10505 23.2408 4.24505 21.2308 2.98505C19.2508 1.69505 17.0008 1.05005 14.4808 1.05005C11.9608 1.05005 9.71082 1.69505 7.73082 2.98505C5.75082 4.24505 4.19082 6.10505 3.05082 8.56505C1.91082 10.995 1.34082 13.8901 1.34082 17.25C1.34082 20.6101 1.91082 23.5201 3.05082 25.98C4.19082 28.41 5.75082 30.2701 7.73082 31.5601C9.71082 32.82 11.9608 33.4501 14.4808 33.4501C17.0008 33.4501 19.2508 32.82 21.2308 31.5601C23.2408 30.2701 24.8158 28.41 25.9558 25.98C27.0958 23.5201 27.6658 20.6101 27.6658 17.25C27.6658 13.8901 27.0958 10.995 25.9558 8.56505ZM18.9753 24.9963L18.9753 24.9963C20.1217 23.381 20.7708 20.85 20.7708 17.25C20.7708 13.6501 20.1217 11.1191 18.9753 9.5038L18.9691 9.49498L18.9691 9.49495C17.8646 7.9024 16.4006 7.13505 14.4808 7.13505C12.597 7.13505 11.1276 7.89805 9.98947 9.49938C8.86985 11.1167 8.23582 13.6501 8.23582 17.25C8.23582 20.85 8.86987 23.3835 9.98952 25.0008C11.1276 26.6021 12.597 27.365 14.4808 27.365C16.4006 27.365 17.8646 26.5977 18.9691 25.0051L18.9753 24.9963ZM9.17082 8.92505C10.4908 7.06505 12.2608 6.13505 14.4808 6.13505C16.7308 6.13505 18.5008 7.06505 19.7908 8.92505C21.1108 10.7851 21.7708 13.5601 21.7708 17.25C21.7708 20.9401 21.1108 23.715 19.7908 25.5751C18.5008 27.4351 16.7308 28.365 14.4808 28.365C12.2608 28.365 10.4908 27.4351 9.17082 25.5751C7.88082 23.715 7.23582 20.9401 7.23582 17.25C7.23582 13.5601 7.88082 10.7851 9.17082 8.92505Z" fill="#CC000D"/>
<path d="M20.6667 6.88232L7.33333 27" stroke="#CC000D" stroke-width="2" stroke-linecap="round" stroke-linejoin="round"/>
<path d="M20.6667 6.88232L7.33333 27" stroke="#CC000D" stroke-width="3" stroke-linecap="round" stroke-linejoin="round"/>
<ellipse cx="20.1111" cy="21.9706" rx="3.88889" ry="3.91176" stroke="#CC000D" stroke-width="2"/>
<ellipse cx="20.1111" cy="21.9706" rx="3.88889" ry="3.91176" stroke="#CC000D" stroke-width="3"/>
<ellipse cx="7.88889" cy="11.9118" rx="3.88889" ry="3.91176" stroke="#CC000D" stroke-width="2"/>
<ellipse cx="7.88889" cy="11.9118" rx="3.88889" ry="3.91176" stroke="#CC000D" stroke-width="3"/>
</svg>
