<svg width="39" height="22" viewBox="0 0 39 22" fill="none" xmlns="http://www.w3.org/2000/svg">
<path d="M22.9511 17.0459C22.886 16.8584 22.4721 16.5822 21.7096 16.218C21.5031 16.1032 21.2087 15.9471 20.8279 15.7492C20.4467 15.5512 20.1007 15.3688 19.7905 15.2021C19.4797 15.0355 19.1886 14.8741 18.9165 14.718C18.873 14.6868 18.7369 14.5958 18.5082 14.4444C18.2793 14.2935 18.0862 14.1814 17.928 14.1084C17.7701 14.0358 17.6148 13.9992 17.4624 13.9992C17.2446 13.9992 16.9726 14.1477 16.646 14.4444C16.3194 14.7415 16.0198 15.0641 15.7477 15.4134C15.4755 15.7625 15.1868 16.0852 14.8822 16.382C14.5771 16.6791 14.3264 16.8274 14.1306 16.8274C14.0323 16.8274 13.9098 16.8012 13.7629 16.7495C13.6161 16.6974 13.5044 16.6528 13.4277 16.6169C13.3517 16.5802 13.2213 16.5075 13.0361 16.3978C12.8504 16.2884 12.7472 16.2284 12.7255 16.218C11.2335 15.4261 9.95398 14.5199 8.88658 13.4994C7.81953 12.4783 6.87189 11.2546 6.04424 9.8274C6.03337 9.80655 5.9706 9.70755 5.85634 9.53057C5.7419 9.35342 5.66563 9.22859 5.62752 9.15547C5.58942 9.08263 5.54313 8.9758 5.48877 8.83521C5.43442 8.69462 5.40712 8.5775 5.40712 8.48365C5.40712 8.29626 5.56235 8.05656 5.87276 7.76487C6.18311 7.47334 6.52081 7.19719 6.88551 6.93697C7.2505 6.67674 7.58786 6.39019 7.89832 6.07782C8.20867 5.76527 8.36384 5.50499 8.36384 5.2967C8.36384 5.15097 8.32574 5.00239 8.24958 4.8514C8.17337 4.70008 8.0563 4.51543 7.89832 4.29658C7.74029 4.07784 7.64502 3.94775 7.61229 3.90589C7.4491 3.64566 7.28048 3.36705 7.10603 3.07016C6.93157 2.77332 6.74115 2.44244 6.53414 2.07791C6.3273 1.71354 6.16405 1.43219 6.04413 1.2343C5.66317 0.50529 5.37462 0.109289 5.17854 0.0470101C5.10227 0.0157612 4.98783 0 4.83552 0C4.54131 0 4.15749 0.0519902 3.68378 0.156299C3.20991 0.260443 2.83702 0.369678 2.56472 0.484439C2.02018 0.703071 1.44303 1.33845 0.833089 2.39034C0.277677 3.36929 0 4.33822 0 5.29643C0 5.57745 0.0190535 5.85087 0.0571604 6.11673C0.0952673 6.38231 0.163356 6.68183 0.261485 7.01523C0.359441 7.34851 0.438459 7.59609 0.498194 7.75732C0.557986 7.91865 0.669618 8.20766 0.833031 8.62446C0.996216 9.04115 1.09434 9.29623 1.12702 9.38997C1.50814 10.4108 1.9601 11.3222 2.48279 12.1243C3.34277 13.4576 4.51636 14.8354 6.00287 16.2573C7.48944 17.6791 8.92973 18.8016 10.3238 19.6244C11.1623 20.1243 12.1155 20.5565 13.1827 20.9213C13.2807 20.9524 13.5474 21.0461 13.9829 21.2027C14.4186 21.3589 14.7208 21.4657 14.8895 21.5229C15.0582 21.5803 15.3172 21.6559 15.6653 21.7498C16.0142 21.8436 16.3271 21.9088 16.6048 21.9455C16.8826 21.9814 17.1685 22 17.4624 22C18.4642 22 19.4773 21.7342 20.501 21.2031C21.6006 20.6199 22.2647 20.0678 22.4934 19.5466C22.6137 19.2864 22.7276 18.9296 22.8365 18.4764C22.9458 18.0234 23 17.6563 23 17.375C23.0003 17.2287 22.9839 17.1195 22.9511 17.0459Z" fill="#CC000D"/>
<path fill-rule="evenodd" clip-rule="evenodd" d="M24.6696 0.292898C25.0601 0.683416 25.0602 1.31658 24.6696 1.70711L21.4144 4.96243L37.6755 4.96243C38.2278 4.96243 38.6755 5.41015 38.6755 5.96243C38.6755 6.51472 38.2278 6.96243 37.6755 6.96243L21.4143 6.96243L24.6697 10.2178C25.0602 10.6083 25.0602 11.2415 24.6697 11.632C24.2792 12.0226 23.646 12.0226 23.2555 11.632L18.2931 6.66961C17.9025 6.27909 17.9025 5.64593 18.2931 5.25541L23.2554 0.292918C23.6459 -0.097612 24.2791 -0.0976211 24.6696 0.292898Z" fill="#CC000D"/>
</svg>
