<svg width="27" height="29" viewBox="0 0 27 29" fill="none" xmlns="http://www.w3.org/2000/svg">
<path d="M26.3101 21.3499L23.9557 23.4111L20.0554 12.5766L22.4098 10.5154L26.3101 21.3499Z" fill="#CC000D"/>
<path d="M6.8022 8.74716L6.81186 8.74072C6.81508 8.74394 6.81508 8.74716 6.8183 8.75039L6.8022 8.74716Z" fill="#CC000D"/>
<path d="M22.9605 24.2839L22.2938 24.8669L18.3935 14.0292L19.0602 13.4495L22.9605 24.2839Z" fill="#CC000D"/>
<path d="M16.7928 7.98068C17.0312 7.53622 17.2792 7.10787 17.5433 6.65697C17.5851 6.58289 17.6302 6.50559 17.6753 6.43152L17.7558 6.34778L22.471 6.38965L23.3921 8.94689L19.8718 12.0613L19.1504 10.0548L15.6914 9.68766C16.0778 9.19167 16.445 8.62482 16.7928 7.98068Z" fill="#CC000D"/>
<path d="M10.6284 28.5675L6.58319 28.4515L2.68291 17.6171L6.72812 17.7298L10.6284 28.5675Z" fill="#CC000D"/>
<path d="M3.62014 11.4301L3.77152 11.4462C3.82949 11.4687 3.89068 11.488 3.94865 11.5106C4.46075 11.6942 4.94707 11.8713 5.42374 12.0678C6.10331 12.3415 6.74101 12.5412 7.35295 12.6797L5.56545 14.5058L6.54455 17.2209L0.921185 17.0341L6.10352e-05 14.4801L3.62014 11.4301Z" fill="#CC000D"/>
<path d="M9.75238 12.8311L7.84894 14.7764L8.75718 17.2982L7.87148 17.2692L7.00511 14.8633L8.91499 12.8826C9.16943 12.889 9.45285 12.8794 9.75238 12.8311Z" fill="#CC000D"/>
<path d="M12.8346 28.6287L11.9521 28.6029L8.05183 17.7684L8.93431 17.791L12.8346 28.6287Z" fill="#CC000D"/>
<path d="M17.3983 14.902L21.2986 25.7397L17.8396 28.7704L14.1583 28.6641L10.2612 17.8296L13.9393 17.9327L17.3983 14.902Z" fill="#CC000D"/>
<path d="M14.6221 10.8342L18.2679 11.2465L18.8767 12.9438L18.2132 13.53L17.5626 11.7199L13.9296 11.3334C14.197 11.1756 14.4256 10.9985 14.6221 10.8342Z" fill="#CC000D"/>
<path d="M16.6801 12.9083L17.2212 14.4091L13.7686 17.4688L10.0841 17.3432L9.28859 15.1338L11.9489 12.3737L16.6801 12.9083Z" fill="#CC000D"/>
<path d="M0.531428 8.61842C0.734333 9.04356 1.01131 9.27867 1.25931 9.47835C1.76818 9.86162 2.27061 10.0838 2.76982 10.2964C3.76824 10.699 4.75056 11.0082 5.70067 11.4011C6.68621 11.7973 7.73294 12.1032 8.82476 12.1612C9.36584 12.1773 9.94557 12.1451 10.4544 11.8552C10.7057 11.7103 10.9214 11.5074 11.0728 11.2497C11.0889 11.224 11.105 11.1918 11.1179 11.1628C11.2403 11.1531 11.3659 11.1338 11.4883 11.0919C11.6203 11.0501 11.7395 10.9921 11.8522 10.9212C11.878 10.9309 11.907 10.9438 11.9327 10.9534C12.213 11.0533 12.5093 11.0694 12.7927 11.0179C13.3692 10.9116 13.833 10.5702 14.2388 10.2127C15.0407 9.47191 15.6495 8.57333 16.1551 7.64255C16.635 6.73753 17.1922 5.87437 17.6978 4.92426C17.9426 4.44116 18.1842 3.94839 18.3259 3.32357C18.3838 3.01116 18.4418 2.64722 18.3194 2.1931C18.255 1.97087 18.1294 1.72932 17.9523 1.54252C17.7719 1.34927 17.5754 1.22689 17.3596 1.13671L17.2695 1.09484L17.1117 1.04331C16.9957 1.00788 16.9249 0.998217 16.8315 0.978892C16.6575 0.953127 16.4836 0.937023 16.3194 0.937023C15.9876 0.937023 15.6784 0.982113 15.3789 1.04975C14.7831 1.18502 14.2484 1.43945 13.7557 1.73576C13.1566 2.10292 12.6284 2.56992 12.1872 3.10456C11.9746 2.6601 11.7234 2.22531 11.4174 1.80662C11.0503 1.32351 10.6123 0.856505 10.0035 0.482903C9.69757 0.302543 9.34652 0.131845 8.9246 0.0513273C8.71848 0.00623733 8.48659 -0.00664552 8.2547 0.00301662C8.13875 0.0126788 8.02603 0.0191202 7.86821 0.054548C7.79413 0.0706516 7.71362 0.0899758 7.69751 0.0964173L7.6492 0.1093L7.62666 0.115742L7.54936 0.141507C7.0888 0.305764 6.69265 0.60851 6.42533 0.943465C6.15157 1.27842 5.99054 1.6327 5.88103 1.97087C5.66524 2.65366 5.67813 3.29458 5.74254 3.89042C5.8134 4.4315 5.94222 4.94359 6.09682 5.43314C5.33029 5.25922 4.52833 5.22057 3.73926 5.33652C3.16919 5.4267 2.5959 5.57485 2.0516 5.85183C1.77784 5.99032 1.51052 6.15458 1.25609 6.36392C1.12726 6.46699 1.00487 6.58937 0.885706 6.72464C0.827733 6.79872 0.776202 6.85347 0.708567 6.95653L0.621608 7.0918L0.579738 7.17232C0.463793 7.38811 0.399379 7.61034 0.383275 7.87766C0.370392 8.14176 0.434806 8.40907 0.531428 8.61842ZM7.75549 7.10469C8.32555 7.36234 8.87951 7.68119 9.37873 8.06124C9.77809 8.35754 10.1291 8.71504 10.419 9.10797C10.5639 9.29799 10.6831 9.51056 10.7733 9.72635C10.7765 9.73923 10.783 9.75211 10.7862 9.76499C10.8699 9.97756 10.9214 10.1966 10.9279 10.4188C10.9311 10.5605 10.9086 10.6958 10.8667 10.8278C10.5736 10.8149 10.2741 10.7119 10.01 10.5573C9.58163 10.3093 9.22091 9.93891 8.91494 9.53955C8.38352 8.802 8.0067 7.96462 7.75549 7.10469ZM8.31911 2.36702L8.33199 2.3638C8.32555 2.36702 8.31911 2.36702 8.31589 2.37024L8.31911 2.36702ZM11.1662 4.85663C10.8441 5.65859 10.6445 6.48631 10.5575 7.33014C10.5253 7.68441 10.5092 8.04191 10.5253 8.39619C10.3031 8.10311 10.0583 7.83257 9.80064 7.57491C9.41737 7.19487 8.99546 6.85347 8.54778 6.5475C8.21283 6.32205 7.87465 6.10949 7.50427 5.92591C7.42375 5.23667 7.45918 4.55066 7.58801 3.92584C7.67819 3.48461 7.82312 3.07236 7.98416 2.77927C8.06467 2.63434 8.14841 2.51839 8.21605 2.4572C8.28368 2.39278 8.31911 2.37668 8.35132 2.35736L8.38997 2.34447C8.39641 2.34125 8.39963 2.34125 8.40285 2.34125C8.39319 2.34125 8.40285 2.34125 8.41251 2.33803C8.41573 2.33803 8.41573 2.33803 8.41895 2.33803H8.42217C8.44794 2.33481 8.48015 2.32837 8.52201 2.33803C8.61542 2.34447 8.75391 2.38312 8.90206 2.45398C9.20481 2.59247 9.54298 2.85335 9.85539 3.15609C10.3417 3.62632 10.7862 4.21249 11.1662 4.85663ZM11.5108 10.2191C11.3723 10.0484 11.2693 9.84229 11.1952 9.62328C11.192 9.6104 11.1855 9.5943 11.1823 9.57819C11.1147 9.35919 11.0728 9.12729 11.0599 8.8954C11.0309 8.40907 11.076 7.90986 11.1888 7.42998C11.3112 6.90822 11.4883 6.39291 11.7073 5.90336C12.0326 6.64412 12.2613 7.43642 12.3289 8.24482C12.3579 8.73437 12.3418 9.23358 12.2033 9.69414C12.1163 9.984 11.9746 10.2545 11.7749 10.4639C11.6751 10.3963 11.5881 10.3157 11.5108 10.2191ZM12.184 10.6442C12.3998 10.422 12.5704 10.1547 12.6896 9.88416C12.9247 9.36563 13.0439 8.81488 13.0986 8.26414C13.2081 7.15944 13.1019 6.03863 12.841 4.95003C12.7895 4.73746 12.7283 4.5249 12.6606 4.31555C13.1534 3.73582 13.7686 3.27204 14.4288 2.94031C14.8346 2.73418 15.2694 2.59247 15.6849 2.51517C16.1004 2.4411 16.5094 2.45076 16.7542 2.57959C16.7735 2.58925 16.8025 2.60857 16.796 2.60535C16.796 2.60535 16.7928 2.59891 16.8025 2.62468C16.8186 2.67299 16.8347 2.83724 16.7992 3.03049C16.7413 3.42019 16.5867 3.89364 16.4224 4.35742C16.0907 5.29787 15.6752 6.26086 15.2791 7.22385C14.8958 8.1482 14.4964 9.08864 13.8781 9.8584C13.5689 10.232 13.1759 10.5573 12.725 10.6571C12.5479 10.699 12.3611 10.6861 12.184 10.6442ZM1.96787 7.95818C1.96142 7.94529 1.96142 7.94207 1.96142 7.93885C1.96142 7.93563 1.96464 7.91631 1.97109 7.90664C2.07737 7.64899 2.38656 7.38167 2.75694 7.1691C3.13054 6.96298 3.55568 6.79228 4.00013 6.68921C4.82464 6.49597 5.71677 6.46699 6.56382 6.66989C6.62824 6.82448 6.69265 6.97586 6.76029 7.12723L6.76351 7.13367C7.22085 8.12887 7.81668 9.05644 8.57999 9.82619C8.95681 10.2127 9.37228 10.567 9.85217 10.8343C10.1098 10.976 10.4029 11.0919 10.7121 11.1402C10.6026 11.3013 10.4577 11.4462 10.2805 11.5332C9.87149 11.749 9.3594 11.749 8.88273 11.6588C7.9133 11.4655 7.00184 10.9921 6.11614 10.5219C5.1918 10.0291 4.25457 9.55243 3.39142 9.04678C2.96629 8.79556 2.54115 8.53468 2.24163 8.27058C2.08381 8.1482 1.98719 8.00649 1.96787 7.95818Z" fill="#CC000D"/>
</svg>
